<?xml version="1.0" encoding="utf-8"?>
<!-- Generator: Adobe Illustrator 23.0.2, SVG Export Plug-In . SVG Version: 6.00 Build 0)  -->
<svg version="1.1" id="Layer_1" xmlns="http://www.w3.org/2000/svg" xmlns:xlink="http://www.w3.org/1999/xlink" x="0px" y="0px"
	 viewBox="0 0 612 792" style="enable-background:new 0 0 612 792;" xml:space="preserve">
<style type="text/css">
	.st0{fill:#B2697B;}
	.st1{fill:#97C1C9;}
	.st2{fill:#FDD0B1;}
	.st3{fill:#FDD0B1;stroke:#FDD0B1;stroke-miterlimit:10;}
	.st4{fill:#FDD0B1;stroke:#FDD0B1;stroke-linecap:round;stroke-linejoin:round;stroke-miterlimit:10;}
	.st5{fill:none;stroke:#FDD0B1;stroke-linecap:round;stroke-linejoin:round;stroke-miterlimit:10;}
	.st6{fill:#F79F9B;}
	.st7{fill:#C6938C;}
	.st8{fill:#ED1C24;}
	.st9{fill:#A84824;}
	.st10{fill:#C08798;}
	.st11{fill:#C48463;}
	.st12{fill:#F08481;}
	.st13{fill:#AB4944;stroke:#A44A48;stroke-width:0.25;stroke-miterlimit:10;}
	.st14{fill:none;stroke:#A44A48;stroke-width:0.25;stroke-miterlimit:10;}
	.st15{fill:#F3E4DA;stroke:#F3E4DA;stroke-width:2;stroke-linecap:round;stroke-linejoin:round;stroke-miterlimit:10;}
	.st16{fill:#CB9BA5;}
</style>
<path class="st0" d="M368.24,310.56c-1.35,0.03-2.9,0.5-4.21,0.65c-5.26,0.59-1.53-3.76,0.19-5.75c1-1.16,3.5-3.74,1.31-5.16
	c-1.62-1.05-4.63,0.97-6.09,1.34c-4.63,1.17-6.39-0.4-2.82-3.19c1.16-0.91,2.76-1.3,4.06-1.99c0.81-0.43,1.66-0.81,2.29-1.5
	c1.25-1.38,1.82-3.71-0.18-4.73c-0.92-0.47-1.97-0.16-2.94,0.05c-0.26,0.06-0.51,0.14-0.77,0.21c-0.83,0.29-1.67,0.58-2.5,0.86
	c-1.87,0.93-2.01-0.32-0.43-3.75c1.23-0.26,2.48-1.73,0.47-1.31c-2.44,0.51-5.72,1.39-7.15,3.68c-1.32,2.12-0.19,3.55,2.09,3.8
	c1.17,0.13,2.47-0.31,3.58-0.64c1.5-0.44,3.01-1.51,4.62-1.04c2.68,0.78,1.1,2.57-1.3,3.97c-2.3,1.34-6.34,2.49-7.05,5.56
	c-0.53,2.29,1.36,2.65,3.39,2.6c1.76-0.05,3.36-1.27,4.99-1.35c0.47-0.2,0.94-0.41,1.42-0.61c0.43,0.81,0.86,1.63,1.28,2.44
	c-0.19,0.75-2.18,1.6-2.82,2.34c-1.65,1.93-2.45,4.85,0.66,6.04c0.82,0.31,2,0.24,2.88,0.11c0.54-0.08,1.78-0.9,2.24-0.66
	c0.46,1.37,0.93,2.74,1.39,4.11c-1.32,1.06-2.72,1.99-4.21,2.79c-1.68,0.96,0.93,1.06,1.73,0.6c2-1.15,8.06-4.07,7.8-7.06
	C371.99,310.98,369.89,310.52,368.24,310.56z"/>
<g>
	<rect x="0.99" class="st1" width="612" height="792"/>
	<g>
		<path class="st1" d="M612.99,786c-20.35,0-40.7,0-61.05,0c-48.85,0-97.69,0-146.54,0c-58.88,0-117.76,0-176.64,0
			c-50.87,0-101.74,0-152.61,0c-16.69,0-33.38,0-50.07,0c-7.86,0-16.24-0.83-24.07,0c-0.34,0.04-0.7,0-1.04,0c2,2,4,4,6,6
			c0-7.06,0-14.12,0-21.18c0-19.21,0-38.42,0-57.64c0-28.42,0-56.83,0-85.25c0-34.67,0-69.34,0-104.01c0-37.98,0-75.95,0-113.93
			c0-38.33,0-76.66,0-114.99c0-35.74,0-71.48,0-107.21c0-30.2,0-60.39,0-90.59c0-21.7,0-43.41,0-65.11c0-10.1,0.9-20.67,0-30.74
			c-0.04-0.44,0-0.9,0-1.35c-2,2-4,4-6,6c20.35,0,40.7,0,61.05,0c48.85,0,97.69,0,146.54,0c58.88,0,117.76,0,176.64,0
			c50.87,0,101.74,0,152.61,0c16.69,0,33.38,0,50.07,0c7.86,0,16.24,0.83,24.07,0c0.34-0.04,0.7,0,1.04,0c-2-2-4-4-6-6
			c0,7.06,0,14.12,0,21.18c0,19.21,0,38.42,0,57.64c0,28.42,0,56.83,0,85.25c0,34.67,0,69.34,0,104.01c0,37.98,0,75.95,0,113.93
			c0,38.33,0,76.66,0,114.99c0,35.74,0,71.48,0,107.21c0,30.2,0,60.39,0,90.59c0,21.7,0,43.41,0,65.11c0,10.23-0.27,20.51,0,30.74
			c0.01,0.45,0,0.9,0,1.35c0,7.72,12,7.73,12,0c0-7.06,0-14.12,0-21.18c0-19.21,0-38.42,0-57.64c0-28.42,0-56.83,0-85.25
			c0-34.67,0-69.34,0-104.01c0-37.98,0-75.95,0-113.93c0-38.33,0-76.66,0-114.99c0-35.74,0-71.48,0-107.21c0-30.2,0-60.39,0-90.59
			c0-21.7,0-43.41,0-65.11c0-10.23,0.27-20.51,0-30.74c-0.01-0.45,0-0.9,0-1.35c0-3.24-2.75-6-6-6c-20.35,0-40.7,0-61.05,0
			c-48.85,0-97.69,0-146.54,0c-58.88,0-117.76,0-176.64,0C177.9-6,127.03-6,76.16-6C51.5-6,26.68-6.81,2.03-6
			C1.68-5.99,1.33-6,0.99-6c-3.24,0-6,2.75-6,6c0,7.06,0,14.12,0,21.18c0,19.21,0,38.42,0,57.64c0,28.42,0,56.83,0,85.25
			c0,34.67,0,69.34,0,104.01c0,37.98,0,75.95,0,113.93c0,38.33,0,76.66,0,114.99c0,35.74,0,71.48,0,107.21c0,30.2,0,60.39,0,90.59
			c0,21.7,0,43.41,0,65.11c0,10.23-0.27,20.51,0,30.74c0.01,0.45,0,0.9,0,1.35c0,3.24,2.75,6,6,6c20.35,0,40.7,0,61.05,0
			c48.85,0,97.69,0,146.54,0c58.88,0,117.76,0,176.64,0c50.87,0,101.74,0,152.61,0c24.66,0,49.48,0.81,74.13,0
			c0.35-0.01,0.69,0,1.04,0C620.71,798,620.72,786,612.99,786z"/>
	</g>
</g>
<path class="st2" d="M283.32,282.47c-4.29,15.07-7.43,30.46-5.86,46.19c1.14,11.41,19.12,11.53,17.96,0
	c-1.43-14.28,1.33-27.74,5.22-41.41C303.81,276.1,286.48,271.33,283.32,282.47z"/>
<g>
	<path class="st3" d="M404.01,426.98l-3.91,1.2c-0.18,0.05-0.37-0.05-0.42-0.22l-6.9-22.49c-0.05-0.18,0.05-0.37,0.22-0.42l3.91-1.2
		c0.18-0.05,0.37,0.05,0.42,0.22l6.9,22.49C404.28,426.74,404.18,426.92,404.01,426.98z"/>
	<path class="st3" d="M399.16,438.57l-3.24,0.73c-0.18,0.04-0.36-0.07-0.4-0.25l-7.38-32.8c-0.04-0.18,0.07-0.36,0.25-0.4l3.24-0.73
		c0.18-0.04,0.36,0.07,0.4,0.25l7.38,32.8C399.46,438.35,399.34,438.53,399.16,438.57z"/>
	<path class="st3" d="M392.87,441.65l-3.28,0.52c-0.18,0.03-0.36-0.1-0.38-0.28L384,408.67c-0.03-0.18,0.1-0.36,0.28-0.38l3.28-0.52
		c0.18-0.03,0.36,0.1,0.38,0.28l5.21,33.22C393.18,441.45,393.05,441.62,392.87,441.65z"/>
	<path class="st3" d="M386.47,439.24l-3.28,0.52c-0.18,0.03-0.36-0.1-0.38-0.28l-5.21-33.22c-0.03-0.18,0.1-0.36,0.28-0.38
		l3.28-0.52c0.18-0.03,0.36,0.1,0.38,0.28l5.21,33.22C386.78,439.04,386.65,439.21,386.47,439.24z"/>
	<path class="st3" d="M378.95,433.83l-3.31,0.27c-0.19,0.02-0.35-0.12-0.36-0.31l-2.71-33.51c-0.01-0.18,0.12-0.35,0.31-0.36
		l3.31-0.27c0.19-0.02,0.35,0.12,0.36,0.31l2.71,33.51C379.27,433.65,379.13,433.81,378.95,433.83z"/>
</g>
<g>
	<path class="st3" d="M238.87,431.25h-4.09c-0.19,0-0.34-0.15-0.34-0.34v-23.53c0-0.19,0.15-0.34,0.34-0.34h4.09
		c0.19,0,0.34,0.15,0.34,0.34v23.53C239.21,431.1,239.06,431.25,238.87,431.25z"/>
	<path class="st3" d="M230.84,440.9l-3.31-0.25c-0.19-0.01-0.32-0.18-0.31-0.36l2.56-33.53c0.01-0.19,0.18-0.32,0.36-0.31l3.31,0.25
		c0.19,0.01,0.32,0.18,0.31,0.36l-2.56,33.53C231.19,440.78,231.03,440.92,230.84,440.9z"/>
	<path class="st3" d="M223.92,442l-3.29-0.47c-0.18-0.03-0.31-0.2-0.28-0.38l4.76-33.28c0.03-0.18,0.2-0.31,0.38-0.29l3.29,0.47
		c0.18,0.03,0.31,0.2,0.28,0.38l-4.76,33.28C224.28,441.9,224.11,442.02,223.92,442z"/>
	<path class="st3" d="M218.52,437.81l-3.29-0.47c-0.18-0.03-0.31-0.2-0.28-0.38l4.76-33.28c0.03-0.18,0.2-0.31,0.38-0.29l3.29,0.47
		c0.18,0.03,0.31,0.2,0.28,0.38l-4.76,33.28C218.87,437.71,218.7,437.84,218.52,437.81z"/>
	<path class="st3" d="M212.91,430.42l-3.24-0.72c-0.18-0.04-0.3-0.22-0.26-0.4l7.23-32.83c0.04-0.18,0.22-0.3,0.4-0.26l3.24,0.72
		c0.18,0.04,0.3,0.22,0.26,0.4l-7.23,32.83C213.27,430.35,213.09,430.46,212.91,430.42z"/>
</g>
<path class="st4" d="M288.35,614.31v10.31c0,3.56-2.89,6.45-6.45,6.45h-23.71c-3.56,0-6.45-2.89-6.45-6.45v-10.31
	c0-3.56,2.89-6.45,6.45-6.45h23.71C285.46,607.86,288.35,610.75,288.35,614.31z"/>
<path class="st4" d="M371.25,614.2v10.31c0,3.56-2.89,6.45-6.45,6.45h-23.03c-3.56,0-6.45-2.89-6.45-6.45V614.2
	c0-3.56,2.89-6.45,6.45-6.45h23.03C368.36,607.74,371.25,610.63,371.25,614.2z"/>
<path class="st5" d="M244,630.96"/>
<path class="st5" d="M266.67,605.41"/>
<path class="st5" d="M244.11,630.84"/>
<path class="st5" d="M271.1,631.07"/>
<rect x="283.1" y="264.22" class="st4" width="2.75" height="2.76"/>
<polygon class="st4" points="357.36,285.63 324.27,272.52 332.44,249.8 365.54,262.91 "/>
<path class="st4" d="M285.61,251.14c-0.25,0.1-0.51,0.18-0.79,0.24c-0.56,0.28-1.2,0.47-1.95,0.51l-28.94,11.77l9.16,22.57
	l31.54-12.83L285.61,251.14z"/>
<path class="st4" d="M294.64,630.96h-20.16c-3.88,0-7.02-3.14-7.02-7.02V372.89c0-3.88,3.14-7.02,7.02-7.02h20.16
	c3.88,0,7.02,3.14,7.02,7.02v251.05C301.66,627.81,298.52,630.96,294.64,630.96z"/>
<path class="st4" d="M345.69,630.96h-20.75c-3.81,0-6.9-3.09-6.9-6.9V387.01c0-3.81,3.09-6.9,6.9-6.9h20.75c3.81,0,6.9,3.09,6.9,6.9
	v237.05C352.59,627.87,349.5,630.96,345.69,630.96z"/>
<path class="st4" d="M229.04,418.05l-10.51-2.8c-3.64-0.97-5.81-4.71-4.84-8.35l36.92-138.95c0.97-3.65,4.71-5.82,8.36-4.84
	l10.51,2.8c3.64,0.97,5.81,4.71,4.84,8.35L237.4,413.21C236.43,416.85,232.68,419.02,229.04,418.05z"/>
<path class="st4" d="M392.31,416.62l-10.66,2.18c-3.7,0.76-7.31-1.63-8.06-5.33l-28.73-140.88c-0.75-3.69,1.63-7.3,5.32-8.05
	l10.66-2.18c3.7-0.76,7.31,1.63,8.06,5.33l28.73,140.88C398.38,412.26,396,415.86,392.31,416.62z"/>
<path class="st3" d="M325.63,432.36h-28.29c-15.85,0-28.81-12.97-28.81-28.81V277.6c0-15.85,12.97-28.81,28.81-28.81h28.29
	c15.85,0,28.81,12.97,28.81,28.81v125.95C354.44,419.4,341.48,432.36,325.63,432.36z"/>
<rect x="294.64" y="218.01" class="st3" width="29.98" height="36.4"/>
<path class="st3" d="M308.6,231.09L308.6,231.09c-23.19,0-42.17-18.98-42.17-42.17v-37.14c0-23.19,18.98-42.17,42.17-42.17h0
	c23.19,0,42.17,18.98,42.17,42.17v37.14C350.77,212.12,331.79,231.09,308.6,231.09z"/>
<g>
	<path class="st6" d="M330.66,271.22c-2.18-2.49-4.96-3.79-8.68-4.2c-3.22-0.36-6.07,2.03-7.75,4.46
		c-3.66,5.27-0.82,12.29-0.24,18.13c0.54,5.43,0.82,10.88,0.93,16.33c-0.35,1.1-0.51,2.27-0.47,3.43c-1.21,3.35-0.59,7.44,1.9,10
		c0.69,1.05,1.61,1.85,2.65,2.47c0.23,0.19,0.47,0.37,0.72,0.53c0.2,0.09,0.4,0.18,0.6,0.29c0.18,0.04,0.36,0.08,0.55,0.12
		c0.66,0.15,1.3,0.4,1.93,0.68c0.09,0,0.17-0.01,0.26-0.01c0.79,0,1.51,0.09,2.19,0.24c0.43-0.03,0.86-0.04,1.25-0.12c0,0,0,0,0,0
		c3.45-0.23,6.92-0.93,9.5-3.09c0.41-0.34,0.79-0.73,1.15-1.15c0.6-0.37,1.12-0.81,1.59-1.3c2-1.81,2.95-4.54,2.87-7.23
		c0.05-0.11,0.09-0.23,0.14-0.34c0.01-0.67,0.04-1.34,0.11-2.01C341.73,295.94,340.49,279.27,330.66,271.22z"/>
	<path class="st6" d="M308.15,277.12c-0.17-1.02-0.5-2-0.98-2.9c-1.66-5-7.01-8.67-12.6-4.91c-8.45,5.69-12.02,14.22-13.37,24.08
		c-1.1,8-4.04,23.03,4.98,27.31c6.87,3.26,18.91,2,21.15-6.51c1.13-4.29-0.26-9.23-0.39-13.58c-0.18-6.03,0.21-11.83,1.66-17.71
		C309.13,280.7,308.89,278.76,308.15,277.12z"/>
</g>
<g>
	<polygon class="st7" points="300.43,284.06 296.35,278.34 311.08,257.67 315.16,263.39 	"/>
	<polygon class="st7" points="310.86,267.53 314.43,261.17 329.02,277.26 325.45,283.62 	"/>
	<rect x="308.6" y="236.21" class="st7" width="5.77" height="29.23"/>
</g>
<path class="st8" d="M322.94,318.75h-9.8c-3.38,0-6.15-2.77-6.15-6.15v-17.27c0-3.38,2.77-6.15,6.15-6.15h9.8
	c3.38,0,6.15,2.77,6.15,6.15v17.27C329.09,315.98,326.32,318.75,322.94,318.75z"/>
<path class="st9" d="M306.41,332.82c-1.3-1.77-0.21-4-1.7-5.45c-0.14-0.14-0.35-0.26-0.58-0.36c-0.17-0.4-1.11-0.64-1.47-0.75
	c-5.15-1.63-11.43-1.03-16.76-0.38c-2.06,0.25-5.89,0.53-8.43,1.4c-1.31,0.01-2.31,0.5-3.02,1.23c-0.17,0.04-0.31,0.11-0.49,0.14
	c-0.24,0.35-0.52,0.67-0.85,0.97c0,0.01,0,0.02,0,0.04c-0.18,2.31-0.28,4.61-0.24,6.93c0.03,1.82-0.4,5.03,0.34,7.01
	c-0.02,0.4,0,0.81,0.07,1.2v0c-0.26,2.41,1.12,5.04,4.25,5.04c0.88,0,1.6-0.22,2.21-0.58c0.14,0.02,0.29,0.04,0.43,0.07
	c2.31-1.22,4.41-2.74,6.82-3.82c0.14-0.06,0.27-0.11,0.41-0.16c0.72-0.8,1.72-1.45,2.82-1.89c3.41-2.74,7.81-4.57,12.95-5.3
	c0.86-0.12,6.24,0.26,6.94-1.14C310.79,335.63,307.06,333.71,306.41,332.82z"/>
<path class="st7" d="M347.34,342.68c-0.63-6.48-4.52-15.34-11.35-16.2c-0.69-0.09-1.35-0.06-2,0.03c-3.31-0.06-6.05,1.45-8.69,3.4
	c-4.82,2.75-10.03,5.46-12.04,0.01c-0.22-0.59-0.5-1.35-0.84-2.1c-0.05-0.8-0.07-1.45-0.09-1.85c-0.04-1.31-3.74-3.87-5.02-4.89
	c-0.14-0.14-0.29-0.28-0.43-0.42c-0.95,4.06-1.07,8.01-0.72,11.91c0.43,0.48,0.82,1,1.09,1.6c0.7,0.43,1.38,1.02,2.06,1.49
	c1.52,1.06,3.07,2.09,4.52,3.28c1.03,0.84,2.01,1.74,2.89,2.7c3.55,2.73,5.01,7.45,3.87,12.77c-0.52,2.41-2.19,4.25-4.2,5.2
	c-1.76,1.35-3.93,2.15-6.24,2.29c-1.89,0.12-3.83-0.29-5.69-0.64c-0.71-0.13-1.42-0.3-2.13-0.45c-3.15,0.76-5.86,0.33-8.23,3.72
	c-2.35,3.37-2.48,7.72-2.64,11.79c-0.05,1.35,3.21,3.46,4.71,4.59c0.25,0.24,0.49,0.48,0.74,0.72c1.58-8.2,8.04-12.81,15.56-11.67
	c7.02,1.07,12.82,5.45,20.13,5.5c6.07,0.04,10.61-1.34,12.64-8.12C347.45,360,348.09,350.34,347.34,342.68z"/>
<path class="st10" d="M324.1,408.97c-0.16,0-0.34,0.02-0.51,0.06c-0.04-0.22-0.16-0.42-0.46-0.54c1.1-1.7,1.49-4.28-1.05-4.83
	c-1.65-0.36-2.95,0.41-4.14,1.37c-0.19-0.65-0.34-1.39-0.49-1.59c-0.71-0.9-1.29-0.94-2.34-0.91c-2.3,0.06-3.56,1.44-5.34,2.59
	c-1.36,0.88,0.02,0.31-1.06-0.88c-0.5-0.56-1.52-0.62-2.21-0.66c-1.48-0.1-2.48,0.38-3.42,1c-0.74-1.04-0.67-2.57-0.42-3.92
	c0.63-0.14,1.25-0.37,1.77-0.68c0.04-0.02,0.08-0.06,0.12-0.1c0.2,0.3,0.41,0.58,0.69,0.76c0.91,0.62,1.99,0.81,3.08,0.8
	c0.96-0.01,1.97-0.19,2.84-0.62c0.15-0.07,0.28-0.19,0.42-0.3c0.06,0.08,0.12,0.14,0.16,0.19c0.79,0.76,1.83,1.18,2.93,1.26
	c1.87,0.14,3.93-0.64,5.19-2.01c0.71-0.78,0.93-1.18,0.89-1.38c0.47-0.17,0.87-0.34,0.94-0.39c2-1.41,1.72-4.14,1.74-6.34
	c0-0.23-0.06-0.43-0.14-0.6c0.27-0.54,0.5-1.12,0.69-1.73c0.61-1.93-3.76-1.54-4.98,0.07c-0.03-0.08-0.04-0.15-0.08-0.24
	c-0.19-0.43-0.25-0.74-0.58-1.09c-0.72-0.78-1.65-1.12-2.73-1.11c-1.15,0.02-2.36,0.55-3.22,1.32c-0.13,0.12-0.22,0.28-0.33,0.42
	c-0.11-0.42-0.24-0.81-0.48-1.07c-0.78-0.89-1.6-0.95-2.73-0.86c-0.83,0.07-1.59,0.3-2.27,0.74c-0.13-0.33-0.29-0.62-0.49-0.78
	c-0.67-0.56-1.41-0.64-2.27-0.61c-0.61,0.02-1.21,0.16-1.75,0.42c-0.48-1.7-5.28-0.56-5.16,1.61c0.15,2.49,0.41,4.91,3.58,4.68
	c0.94-0.07,1.62-0.37,2.18-0.78c0.11,0.19,0.21,0.34,0.26,0.38c0.69,0.62,1.94,0.88,2.84,0.81c1.05-0.08,1.71-0.41,2.21-0.87
	c0.47,1.07,1.12,1.86,3.19,1.78c1.09-0.04,2.3-0.49,3.15-1.18c0.04-0.03,0.06-0.09,0.1-0.12c0.16,0.48,0.33,0.91,0.56,1.11
	c0.85,0.74,2.07,0.88,3.18,0.77c-0.01,0.36-0.04,0.7-0.08,0.98c-0.12,0.05-0.24,0.09-0.36,0.16c-0.11,0.06-1.85,1.71-2.05,2.27
	c-0.04-0.41-0.09-1.39-0.27-1.62c-0.27-0.36-0.78-0.49-1.18-0.65c-1.11-0.44-2.26-0.2-3.32,0.29c-0.39,0.18-1.05,0.77-1.39,0.86
	c-0.25,0.07-0.37,0.13-0.44,0.18c-0.02-0.09-0.1-0.24-0.36-0.49c-0.81-0.77-0.72-1.56-2.03-1.93c-1.07-0.3-2.43,0.03-3.38,0.57
	c-0.11,0.06-0.2,0.13-0.3,0.19c-0.84-1.38-4.84-0.54-5.1,1.29c-0.13,0.92,0.05,1.7,0.44,2.31c-0.27,0.19-0.47,0.41-0.53,0.65
	c-0.63,2.56-1.24,6.45,1.9,7.6c0.9,0.33,1.84,0.24,2.75,0c0.5-0.13,1.19-0.64,1.82-1.02c-0.23,0.52,0.56,1.37,1.27,1.71
	c0.8,0.38,1.93,0.29,2.8,0.17c1.19-0.17,2.43-0.62,3.47-1.22c0.22-0.13,0.69-0.49,1.16-0.89c0.61,1.34,0.77,2.35,3.33,2.12
	c0.85-0.08,1.66-0.29,2.44-0.63c-0.09,0.38-0.24,0.77-0.55,1.18c-0.43,0.59,0.07,0.85,0.88,0.89c-0.75,0.88-0.78,1.81,1.07,1.81
	c0.15,0,0.32-0.04,0.48-0.07c0.08,0.39,0.51,0.66,1.52,0.66C324.34,412.26,327.61,408.97,324.1,408.97z"/>
<g>
	<path class="st11" d="M340.17,409.64c1.21-1.4,1.05-3.19-0.52-4.47c1.91-1.31,2.17-3.32,0.78-4.82c0.96-1.39,0.65-3.09-0.95-4.29
		c1.74-1.31,1.96-3.23,0.62-4.68c1.23-1.35,1.15-3.1-0.28-4.39c2.57-2.33,0.81-6.17-5.29-6.42c-0.87-1.46-3.09-2.64-6.66-2.64
		c-1.62,0-2.95,0.24-4.01,0.64c-1.06-0.4-2.4-0.64-4.02-0.64c-1.26,0-2.35,0.15-3.27,0.4c-1.16-0.59-2.74-0.96-4.76-0.96
		c-1.29,0-2.4,0.16-3.34,0.42c-0.94-0.27-2.05-0.42-3.35-0.42c-1.77,0-3.21,0.29-4.32,0.76c-1.15-0.58-2.72-0.94-4.72-0.94
		c-1.73,0-3.15,0.28-4.24,0.73c-0.89-0.23-1.93-0.36-3.11-0.36c-6.37,0-8.44,3.73-6.21,6.16c-1.15,1.26-1.15,2.86,0,4.11
		c-1.42,1.55-1.09,3.63,0.99,4.93c-1.29,1.15-1.53,2.67-0.69,3.96c-1.58,2.41,0.6,5.69,6.58,5.69c5.97,0,8.16-3.28,6.58-5.69
		c0.97-1.48,0.52-3.28-1.36-4.46c1.46-1.29,1.56-3.06,0.31-4.42c0.69-0.75,0.95-1.61,0.82-2.46c0.11,0,0.21,0.01,0.33,0.01
		c1.77,0,3.21-0.29,4.32-0.76c1.15,0.58,2.72,0.94,4.72,0.94c1.29,0,2.4-0.16,3.34-0.42c0.94,0.27,2.05,0.42,3.35,0.42
		c1.26,0,2.35-0.15,3.27-0.4c1.16,0.59,2.74,0.96,4.76,0.96c1.62,0,2.95-0.24,4.01-0.64c0.92,0.34,2.04,0.56,3.37,0.62
		c0.18,0.31,0.44,0.6,0.74,0.88c-1.43,1.29-1.52,3.04-0.28,4.4c-1.34,1.45-1.12,3.37,0.62,4.68c-1.76,1.31-1.96,3.24-0.61,4.7
		c-0.93,1.34-0.67,2.97,0.78,4.16c-2.02,1.39-2.18,3.54-0.53,5.06c-0.45,0.52-0.7,1.1-0.77,1.68c-1.38,0.39-2.36,1.03-2.97,1.78
		c-0.87-0.21-1.88-0.34-3.03-0.34c-1.83,0-3.3,0.31-4.42,0.81c-0.77-0.16-1.64-0.25-2.61-0.25c-5.65,0-7.92,2.94-6.81,5.29
		c-0.05,0.03-0.08,0.06-0.12,0.09c0.61,1.5,0.85,3.17,0.69,4.81c0.32,1.15,0.45,2.36,0.35,3.56c0.33,0.35,0.84,0.65,1.61,0.78
		c-0.04,0.87,0.94,1.76,2.94,1.76c0.37,0,0.7-0.04,1-0.1c0.03-0.22,0.08-0.44,0.12-0.65c0.36-4.18,3.24-8.11,8.64-8.11
		c0.29,0,0.56,0.02,0.83,0.04c1.99-0.33,3.37-1.1,4.13-2.04c0.87,0.21,1.86,0.34,3,0.34c4.49,0,6.84-1.86,7.06-3.8
		C341.43,414.53,342.29,411.57,340.17,409.64z"/>
</g>
<g>
	<path class="st12" d="M339.01,142.59c-0.24-5.19-3.7-10.2-10.39-10.2c-0.47,0-0.92,0.03-1.36,0.08c-1.56-3.1-4.6-5.41-9.14-5.41
		c-4.41,0-7.41,2.18-9.02,5.16c-1.65-2.81-4.59-4.84-8.84-4.84c-3.79,0-6.52,1.63-8.23,3.97c-6.49,0.1-9.88,4.96-10.18,10.05
		c-10.22,3.32-9.07,21.04,3.52,21.04c0.6,0,1.17-0.05,1.73-0.13c0.91,0.24,1.88,0.4,2.96,0.4c1.46,0,2.75-0.25,3.89-0.68
		c0.29,0.02,0.58,0.04,0.89,0.04c0.36,0,0.71-0.02,1.05-0.05c0.86,0.22,1.77,0.37,2.78,0.37c0.54,0,1.05-0.05,1.55-0.13
		c0.17,0.06,0.36,0.09,0.55,0.13c0.34-0.05,0.7-0.07,1.06-0.08c0.29-0.06,0.57-0.13,0.87-0.17c1.27-0.83,2.82-1.36,4.73-1.36
		c1.01,0,1.93,0.14,2.77,0.4c0.19,0.01,0.38,0.02,0.57,0.04c0.24,0.15,0.5,0.29,0.77,0.42c1.47,0.85,3.24,1.39,5.36,1.39
		c0.34,0,0.66-0.02,0.99-0.05c0.29,0.02,0.58,0.06,0.88,0.06c0.62,0,1.2-0.05,1.77-0.14c0.56,0.08,1.13,0.14,1.74,0.14
		c1.63,0,3.07-0.31,4.32-0.84c0.65,0.12,1.33,0.2,2.06,0.2c0.47,0,0.9-0.05,1.34-0.1c1.15,0.43,2.45,0.68,3.91,0.68
		C345.78,162.97,347.49,147.14,339.01,142.59z"/>
	<path class="st12" d="M306.46,141.63c-0.78-0.17-1.61-0.28-2.51-0.28c-11.96,0-12.71,16.45-2.2,18.47
		c0.78,0.17,1.61,0.28,2.51,0.28C316.22,160.1,316.97,143.65,306.46,141.63z"/>
	<rect x="308.83" y="133.21" class="st13" width="0.8" height="28.86"/>
	<path class="st14" d="M294.38,146.8c5.53-1.07,11.08,1.24,12.39,5.15c1.05,3.13-1.68,6.36-6.11,7.21
		c-3.54,0.68-7.09-0.79-7.93-3.29c-0.67-2,1.08-4.07,3.91-4.62c2.27-0.44,4.54,0.51,5.08,2.11c0.43,1.28-0.69,2.6-2.5,2.95
		c-1.45,0.28-2.9-0.32-3.25-1.35c-0.28-0.82,0.44-1.67,1.6-1.89"/>
	<path class="st14" d="M323.55,147.14c3.85-4.15,10.03-5.02,13.8-1.93c3.01,2.47,2.96,7.16-0.12,10.48
		c-2.46,2.66-6.42,3.21-8.83,1.24c-1.93-1.58-1.9-4.58,0.08-6.71c1.58-1.7,4.11-2.06,5.65-0.79c1.23,1.01,1.21,2.93-0.05,4.29
		c-1.01,1.09-2.63,1.32-3.62,0.51c-0.79-0.65-0.78-1.88,0.03-2.75"/>
	<path class="st14" d="M318.67,161.03c-4.73-1.49-7.57-6.29-6.33-10.73c0.99-3.55,4.86-5.47,8.65-4.28
		c3.03,0.95,4.84,4.02,4.05,6.87c-0.63,2.27-3.11,3.5-5.53,2.74c-1.94-0.61-3.1-2.58-2.59-4.39c0.4-1.45,1.99-2.24,3.54-1.75
		c1.24,0.39,1.98,1.65,1.66,2.81c-0.26,0.93-1.27,1.43-2.27,1.12"/>
	<path class="st14" d="M314.66,146.06c-3.53-4.43-3.48-10.67,0.12-13.95c2.88-2.62,7.51-1.88,10.33,1.66
		c2.26,2.83,2.23,6.83-0.08,8.93c-1.84,1.68-4.8,1.2-6.61-1.06c-1.45-1.81-1.42-4.37,0.05-5.72c1.18-1.07,3.07-0.77,4.23,0.68
		c0.93,1.16,0.91,2.8-0.03,3.66c-0.75,0.69-1.97,0.49-2.71-0.44"/>
	<path class="st14" d="M298.29,146.62c-5.07-1.72-8.33-6.57-7.27-10.84c0.84-3.41,4.81-5.07,8.87-3.69c3.24,1.1,5.33,4.2,4.66,6.94
		c-0.54,2.18-3.08,3.24-5.67,2.36c-2.08-0.7-3.41-2.69-2.98-4.44c0.34-1.4,1.97-2.08,3.63-1.51c1.33,0.45,2.18,1.72,1.91,2.84
		c-0.22,0.89-1.26,1.33-2.32,0.97"/>
	<path class="st14" d="M286.11,159.29c-5.37-1.77-8.74-7.03-7.52-11.75c0.98-3.77,5.26-5.69,9.56-4.27c3.44,1.13,5.59,4.5,4.81,7.52
		c-0.63,2.42-3.36,3.64-6.12,2.73c-2.2-0.73-3.58-2.88-3.08-4.81c0.4-1.55,2.15-2.33,3.91-1.75c1.41,0.46,2.29,1.84,1.97,3.08
		c-0.26,0.99-1.38,1.49-2.51,1.12"/>
</g>
<path class="st15" d="M281.66,606.92L281.66,606.92c-3.81,0-6.9-3.09-6.9-6.9v-70.97c0-3.81,3.09-6.9,6.9-6.9h0
	c3.81,0,6.9,3.09,6.9,6.9v70.97C288.56,603.84,285.48,606.92,281.66,606.92z"/>
<path class="st15" d="M281.66,521.22L281.66,521.22c-3.81,0-6.9-3.09-6.9-6.9v-70.97c0-3.81,3.09-6.9,6.9-6.9h0
	c3.81,0,6.9,3.09,6.9,6.9v70.97C288.56,518.14,285.48,521.22,281.66,521.22z"/>
<g>
	<path class="st0" d="M359.77,283.82c-0.54,0.05-0.99-0.14-1.35-0.57c-2.89-1.89-5.64-0.61-6.94,1.61c-5.2-0.46-8.87,6.56-3.3,9.28
		c0.5,0.24,0.99,0.44,1.48,0.62c-3.09,2.85-1.84,9.66,3.42,9.18c0.12-0.01,0.35-0.05,0.64-0.12c-0.33,0.81-0.43,1.7-0.31,2.59
		c-0.43,1.87-0.76,3.78-0.55,5.61c0.41,3.69,2.54,5.94,5.31,7.06c0.11,0.73,0.33,1.49,0.7,2.28c2.22,4.77,8.34,5.47,11.98,2.26
		c3.3-2.91,4.67-7.72,1.69-11.55c-0.33-0.42-0.68-0.78-1.04-1.12c0.26-0.95,0.42-1.95,0.48-3.02c0.12-1.97-1.09-3.6-2.73-4.5
		c-0.05-0.08-0.08-0.17-0.13-0.25c-0.04-0.06-0.08-0.11-0.12-0.17c1.37-2.71,1.86-5.73,0.68-8.55c-0.66-1.59-1.93-2.75-3.43-3.49
		c-0.05-0.08-0.11-0.16-0.17-0.24c0.05-0.14,0.12-0.28,0.17-0.42C367.63,286.37,363.35,283.31,359.77,283.82z"/>
	<g>
		<path class="st0" d="M360.68,283.11c-2.29-0.32-3.54-1.88-6.1-1.29c-1.95,0.45-3.26,1.5-4.43,3.07c0.64-0.25,1.28-0.5,1.92-0.75
			c-2.43,0.03-4.88,0.7-6.56,2.59c-2.81,3.15-1.12,5,0.79,7.64c0.29,0.4,1.27,0.55,1.39,1.14c-0.08-0.37-1,2.21-0.92,1.93
			c-0.4,1.44-0.28,3.1,0.38,4.43c1.23,2.46,3.78,3.13,6.35,2.66c-0.41-0.16-0.81-0.33-1.22-0.49c-1.09,4.25-1.91,10,1.4,13.51
			c1.58,1.67,2.52,2.17,3.73,4.21c0.88,1.49,1.78,2.73,3.38,3.57c5.36,2.82,12.33-0.5,14.3-6c0.66-1.85,0.71-3.79-0.01-5.64
			c-0.3-0.78-0.89-1.38-1.2-2.14c-0.94-2.27-0.12-2.2-0.46-3.98c-0.21-1.1-0.11-1.65-0.76-2.72c-0.25-0.41-1.96-1.58-2.1-2.03
			c-0.42-1.31,1.33-4.26,1.15-6.14c-0.3-3.07-1.52-3.43-3.04-5.58c-0.38-0.54-0.79-0.44-0.99-0.97c0.63,1.67-0.18-4.04,0.15-2.65
			c-0.79-3.33-4.51-4.47-7.5-4.37c-0.96,0.03-3.11,1.53-1.18,1.46c2.37-0.08,5.2,1.18,5.78,3.68c-0.26-1.13-0.4,2.66-0.31,2.89
			c0.26,0.62,0.89,0.48,1.34,1.03c1.26,1.55,2.3,2.29,2.77,4.41c0.63,2.88-1.32,4.88-0.95,7.26c0.07,0.44,2.5,2.82,2.58,3.1
			c0.58,1.91-0.71,2.92-0.34,4.42c0.26,1.05,2.09,2.63,2.41,3.79c0.49,1.74,0.25,3.63-0.48,5.27c-1.57,3.53-6.04,5.67-9.46,3.24
			c-1.38-0.98-1.74-2.57-2.64-3.83c-0.31-0.43-0.16-0.97-0.53-1.38c-1.13-1.22-2.59-1.45-3.62-2.98c-2.2-3.28-1.49-8.17-0.56-11.85
			c0.15-0.59-0.92-0.54-1.22-0.49c-5.39,0.99-5.03-6.03-2.95-8.38c0.22-0.25,0.11-0.51-0.17-0.63c-5.75-2.38-4.55-6.45,0.81-8.63
			c2.33-0.95,4.69-1.3,7.21-0.95C359.67,284.64,362.24,283.32,360.68,283.11z"/>
	</g>
</g>
<path class="st16" d="M369.24,311.33c-3.13,0.47-6.25,0.94-9.38,1.41c-0.59,0.09-1.57,0.42-1.6,1.16c-0.03,0.69,0.73,1.01,1.33,0.92
	c3.13-0.47,6.25-0.94,9.38-1.41c0.59-0.09,1.57-0.42,1.6-1.16C370.6,311.57,369.84,311.24,369.24,311.33z"/>
<path class="st16" d="M369.4,305.29c-3.51,1.35-7.1,2.31-10.81,2.91c-1.13,0.18-2.61,1.33-0.56,1c4.23-0.69,8.35-1.79,12.35-3.33
	C372.31,305.14,370.48,304.87,369.4,305.29z"/>
<path class="st16" d="M368.41,299.71c-4.34,0.68-8.21,3.14-12.59,3.52c-1.64,0.14-2.22,2.34-0.24,2.17
	c4.44-0.38,8.24-2.83,12.59-3.52C369.76,301.63,370.37,299.4,368.41,299.71z"/>
<path class="st16" d="M367.25,296.38c-4.35,1.34-8.71,2.68-13.06,4.02c-1.69,0.52-1.38,1.82,0.35,1.29
	c4.35-1.34,8.71-2.68,13.06-4.02C369.28,297.16,368.98,295.85,367.25,296.38z"/>
<path class="st16" d="M366.22,292.25c-4.46,0.59-7.69,4.1-12,4.84c-1.35,0.23-2.41,1.89-0.41,1.55c4.36-0.75,7.7-4.26,12-4.84
	C367.19,293.62,368.24,291.98,366.22,292.25z"/>
<path class="st16" d="M362.94,288.46c-3.81,2.14-7.79,3.82-11.98,5.05c-1.78,0.52-1.24,2.57,0.55,2.05
	c4.45-1.3,8.69-3.06,12.74-5.33C365.95,289.26,364.41,287.63,362.94,288.46z"/>
</svg>
