<?xml version="1.0" encoding="utf-8"?>
<!-- Generator: Adobe Illustrator 23.0.2, SVG Export Plug-In . SVG Version: 6.00 Build 0)  -->
<svg version="1.1" id="Layer_1" xmlns="http://www.w3.org/2000/svg" xmlns:xlink="http://www.w3.org/1999/xlink" x="0px" y="0px"
	 viewBox="0 0 612 792" style="enable-background:new 0 0 612 792;" xml:space="preserve">
<style type="text/css">
	.st0{clip-path:url(#XMLID_3_);fill:#FFFFFF;stroke:#231F20;stroke-miterlimit:10;}
	.st1{clip-path:url(#XMLID_3_);fill:#231F20;}
	.st2{clip-path:url(#XMLID_3_);fill:#FDCFB1;}
	.st3{clip-path:url(#XMLID_3_);fill:#231F20;stroke:#231F20;stroke-miterlimit:10;}
	.st4{clip-path:url(#XMLID_3_);}
	.st5{fill:#231F20;stroke:#231F20;stroke-miterlimit:10;}
	.st6{clip-path:url(#XMLID_3_);fill:#DBB7A4;}
	.st7{fill:none;}
	.st8{font-family:'Montserrat-SemiBold';}
	.st9{font-size:150.3129px;}
	.st10{fill:none;stroke:#010101;stroke-width:10;stroke-linecap:round;stroke-linejoin:round;stroke-miterlimit:10;}
</style>
<g>
	<g>
		<defs>
			<ellipse id="XMLID_1_" cx="304.32" cy="354.54" rx="292.53" ry="291.43"/>
		</defs>
		<use xlink:href="#XMLID_1_"  style="overflow:visible;fill:#D6A5A6;"/>
		<clipPath id="XMLID_3_">
			<use xlink:href="#XMLID_1_"  style="overflow:visible;"/>
		</clipPath>
		<ellipse class="st0" cx="776.71" cy="929.59" rx="51.15" ry="42.17"/>
		<ellipse class="st0" cx="1065.8" cy="927.42" rx="20.44" ry="16.85"/>
		<path class="st0" d="M685.39,974.73h-52.66c-6.6,0-12-5.4-12-12v-73.28c0-6.6,5.4-12,12-12h52.66c6.6,0,12,5.4,12,12v73.28
			C697.39,969.33,691.99,974.73,685.39,974.73z"/>
		<ellipse class="st1" cx="1039.48" cy="937.53" rx="54.9" ry="45.26"/>
		<path class="st2" d="M1062.29,1033.83h-45.63c-13.17,0-23.95-10.78-23.95-23.95v-75.36c0-13.17,10.78-23.95,23.95-23.95h45.63
			c13.17,0,23.95,10.78,23.95,23.95v75.36C1086.25,1023.05,1075.47,1033.83,1062.29,1033.83z"/>
		<rect x="841.64" y="877.03" class="st0" width="86.74" height="71.5"/>
		<ellipse class="st3" cx="1031.28" cy="921.08" rx="19.96" ry="16.45"/>
		<ellipse class="st3" cx="1012.67" cy="910.57" rx="19.96" ry="16.45"/>
		<ellipse class="st3" cx="1027.87" cy="903.88" rx="19.96" ry="16.45"/>
		<ellipse class="st3" cx="1012.67" cy="921.08" rx="19.96" ry="16.45"/>
		<ellipse class="st3" cx="1059.51" cy="914.93" rx="19.96" ry="16.45"/>
		<g class="st4">
			<ellipse class="st5" cx="1059.51" cy="958.56" rx="8.27" ry="6.82"/>
			<ellipse class="st5" cx="1019.59" cy="958.56" rx="8.27" ry="6.82"/>
		</g>
		<path class="st6" d="M1041.94,985.09h-4.92c-1.42,0-2.58-1.16-2.58-2.58V961.9c0-1.42,1.16-2.58,2.58-2.58h4.92
			c1.42,0,2.58,1.16,2.58,2.58v20.61C1044.52,983.93,1043.36,985.09,1041.94,985.09z"/>
		<ellipse class="st0" cx="837.22" cy="188.78" rx="51.15" ry="42.17"/>
		<ellipse class="st0" cx="1126.32" cy="186.61" rx="20.44" ry="16.85"/>
		<path class="st0" d="M745.91,233.91h-52.66c-6.6,0-12-5.4-12-12v-73.28c0-6.6,5.4-12,12-12h52.66c6.6,0,12,5.4,12,12v73.28
			C757.91,228.51,752.51,233.91,745.91,233.91z"/>
		<ellipse class="st1" cx="1100" cy="196.71" rx="54.9" ry="45.26"/>
		<path class="st2" d="M1122.81,293.02h-45.63c-13.17,0-23.95-10.78-23.95-23.95v-75.36c0-13.17,10.78-23.95,23.95-23.95h45.63
			c13.17,0,23.95,10.78,23.95,23.95v75.36C1146.76,282.24,1135.98,293.02,1122.81,293.02z"/>
		<rect x="902.16" y="136.22" class="st0" width="86.74" height="71.5"/>
		<ellipse class="st3" cx="1091.79" cy="180.26" rx="19.96" ry="16.45"/>
		<ellipse class="st3" cx="1073.19" cy="169.75" rx="19.96" ry="16.45"/>
		<ellipse class="st3" cx="1088.38" cy="163.06" rx="19.96" ry="16.45"/>
		<ellipse class="st3" cx="1073.19" cy="180.26" rx="19.96" ry="16.45"/>
		<ellipse class="st3" cx="1120.03" cy="174.11" rx="19.96" ry="16.45"/>
		<g class="st4">
			<ellipse class="st5" cx="1120.03" cy="217.74" rx="8.27" ry="6.82"/>
			<ellipse class="st5" cx="1080.11" cy="217.74" rx="8.27" ry="6.82"/>
		</g>
		<path class="st6" d="M1102.46,244.27h-4.92c-1.42,0-2.58-1.16-2.58-2.58v-20.61c0-1.42,1.16-2.58,2.58-2.58h4.92
			c1.42,0,2.58,1.16,2.58,2.58v20.61C1105.04,243.11,1103.88,244.27,1102.46,244.27z"/>
		<use xlink:href="#XMLID_1_"  style="overflow:visible;fill:none;stroke:#D6A5A6;stroke-width:12;stroke-miterlimit:10;"/>
	</g>
	<rect x="73.7" y="248.22" class="st7" width="461.24" height="120.2"/>
	<text transform="matrix(1.0318 0 0 1 78.3516 359.7539)" class="st8 st9">Reset</text>
	<g>
		<line class="st10" x1="260.33" y1="440.93" x2="258.88" y2="579.49"/>
		<line class="st10" x1="397.47" y1="505.7" x2="258.88" y2="579.49"/>
		<line class="st10" x1="393.51" y1="503.72" x2="260.33" y2="440.93"/>
	</g>
</g>
</svg>
