<?xml version="1.0" encoding="utf-8"?>
<!-- Generator: Adobe Illustrator 23.0.2, SVG Export Plug-In . SVG Version: 6.00 Build 0)  -->
<svg version="1.1" id="Layer_1" xmlns="http://www.w3.org/2000/svg" xmlns:xlink="http://www.w3.org/1999/xlink" x="0px" y="0px"
	 viewBox="0 0 612 792" style="enable-background:new 0 0 612 792;" xml:space="preserve">
<style type="text/css">
	.st0{clip-path:url(#XMLID_3_);fill:#FFFFFF;stroke:#231F20;stroke-miterlimit:10;}
	.st1{clip-path:url(#XMLID_3_);fill:#231F20;}
	.st2{clip-path:url(#XMLID_3_);fill:#FDCFB1;}
	.st3{clip-path:url(#XMLID_3_);fill:#231F20;stroke:#231F20;stroke-miterlimit:10;}
	.st4{clip-path:url(#XMLID_3_);}
	.st5{fill:#231F20;stroke:#231F20;stroke-miterlimit:10;}
	.st6{clip-path:url(#XMLID_3_);fill:#DBB7A4;}
	.st7{fill:none;}
	.st8{font-family:'Montserrat-SemiBold';}
	.st9{font-size:130.2924px;}
	.st10{fill:none;stroke:#010101;stroke-width:10;stroke-linecap:round;stroke-linejoin:round;stroke-miterlimit:10;}
</style>
<g>
	<g>
		<defs>
			<ellipse id="XMLID_1_" cx="312.75" cy="393.36" rx="241.9" ry="252.62"/>
		</defs>
		<use xlink:href="#XMLID_1_"  style="overflow:visible;fill:#D6A5A6;"/>
		<clipPath id="XMLID_3_">
			<use xlink:href="#XMLID_1_"  style="overflow:visible;"/>
		</clipPath>
		<ellipse class="st0" cx="703.38" cy="891.82" rx="42.3" ry="36.55"/>
		<ellipse class="st0" cx="942.44" cy="889.94" rx="16.91" ry="14.61"/>
		<path class="st0" d="M625.79,930.94H586.4c-6.6,0-12-5.4-12-12v-60.32c0-6.6,5.4-12,12-12h39.39c6.6,0,12,5.4,12,12v60.32
			C637.79,925.54,632.39,930.94,625.79,930.94z"/>
		<ellipse class="st1" cx="920.67" cy="898.69" rx="45.4" ry="39.23"/>
		<path class="st2" d="M935.39,982.17h-29.44c-13.17,0-23.95-10.78-23.95-23.95v-58.94c0-13.17,10.78-23.95,23.95-23.95h29.44
			c13.17,0,23.95,10.78,23.95,23.95v58.94C959.34,971.4,948.56,982.17,935.39,982.17z"/>
		<rect x="757.07" y="846.26" class="st0" width="71.73" height="61.98"/>
		<ellipse class="st3" cx="913.89" cy="884.43" rx="16.5" ry="14.26"/>
		<ellipse class="st3" cx="898.5" cy="875.33" rx="16.5" ry="14.26"/>
		<ellipse class="st3" cx="911.07" cy="869.53" rx="16.5" ry="14.26"/>
		<ellipse class="st3" cx="898.5" cy="884.43" rx="16.5" ry="14.26"/>
		<ellipse class="st3" cx="937.23" cy="879.11" rx="16.5" ry="14.26"/>
		<g class="st4">
			<ellipse class="st5" cx="937.23" cy="916.93" rx="6.84" ry="5.91"/>
			<ellipse class="st5" cx="904.23" cy="916.93" rx="6.84" ry="5.91"/>
		</g>
		<path class="st6" d="M922.26,939.92h-3.17c-1.42,0-2.58-1.16-2.58-2.58v-17.18c0-1.42,1.16-2.58,2.58-2.58h3.17
			c1.42,0,2.58,1.16,2.58,2.58v17.18C924.84,938.76,923.68,939.92,922.26,939.92z"/>
		<ellipse class="st0" cx="753.42" cy="249.67" rx="42.3" ry="36.55"/>
		<ellipse class="st0" cx="992.48" cy="247.79" rx="16.91" ry="14.61"/>
		<path class="st0" d="M675.83,288.79h-39.39c-6.6,0-12-5.4-12-12v-60.32c0-6.6,5.4-12,12-12h39.39c6.6,0,12,5.4,12,12v60.32
			C687.83,283.39,682.43,288.79,675.83,288.79z"/>
		<ellipse class="st1" cx="970.71" cy="256.55" rx="45.4" ry="39.23"/>
		<path class="st2" d="M985.43,340.03h-29.44c-13.17,0-23.95-10.78-23.95-23.95v-58.94c0-13.17,10.78-23.95,23.95-23.95h29.44
			c13.17,0,23.95,10.78,23.95,23.95v58.94C1009.38,329.25,998.6,340.03,985.43,340.03z"/>
		<rect x="807.11" y="204.11" class="st0" width="71.73" height="61.98"/>
		<ellipse class="st3" cx="963.93" cy="242.29" rx="16.5" ry="14.26"/>
		<ellipse class="st3" cx="948.54" cy="233.18" rx="16.5" ry="14.26"/>
		<ellipse class="st3" cx="961.11" cy="227.38" rx="16.5" ry="14.26"/>
		<ellipse class="st3" cx="948.54" cy="242.29" rx="16.5" ry="14.26"/>
		<ellipse class="st3" cx="987.27" cy="236.96" rx="16.5" ry="14.26"/>
		<g class="st4">
			<ellipse class="st5" cx="987.27" cy="274.78" rx="6.84" ry="5.91"/>
			<ellipse class="st5" cx="954.27" cy="274.78" rx="6.84" ry="5.91"/>
		</g>
		<path class="st6" d="M972.3,297.78h-3.17c-1.42,0-2.58-1.16-2.58-2.58v-17.18c0-1.42,1.16-2.58,2.58-2.58h3.17
			c1.42,0,2.58,1.16,2.58,2.58v17.18C974.88,296.61,973.72,297.78,972.3,297.78z"/>
		<use xlink:href="#XMLID_1_"  style="overflow:visible;fill:none;stroke:#D6A5A6;stroke-width:12;stroke-miterlimit:10;"/>
	</g>
	<rect x="122.05" y="301.2" class="st7" width="381.41" height="104.19"/>
	<text transform="matrix(0.9843 0 0 1 125.8936 397.876)" class="st8 st9">Reset</text>
	<g>
		<line class="st10" x1="276.38" y1="468.24" x2="275.17" y2="588.34"/>
		<line class="st10" x1="389.78" y1="524.38" x2="275.17" y2="588.34"/>
		<line class="st10" x1="386.5" y1="522.67" x2="276.38" y2="468.24"/>
	</g>
</g>
</svg>
